HIERARCHY
ROOT Hips
{
 OFFSET 0.000000 0.000000 0.000000
 CHANNELS 6 Xposition Yposition Zposition Yrotation Xrotation Zrotation
 JOINT Chest
 {
  OFFSET 0.000000 9.585900 0.002600
  CHANNELS 3 Yrotation Xrotation Zrotation
  JOINT Chest2
  {
   OFFSET 0.000000 9.601200 -0.005300
   CHANNELS 3 Yrotation Xrotation Zrotation
   JOINT Chest3
   {
    OFFSET 0.000000 9.561800 0.000000
    CHANNELS 3 Yrotation Xrotation Zrotation
    JOINT Chest4
    {
     OFFSET 0.000000 9.552100 0.000000
     CHANNELS 3 Yrotation Xrotation Zrotation
     JOINT Neck
     {
      OFFSET 0.000000 14.453000 0.000000
      CHANNELS 3 Yrotation Xrotation Zrotation
      JOINT Head
      {
       OFFSET 0.000000 8.936500 -0.011300
       CHANNELS 3 Yrotation Xrotation Zrotation
       End Site
       {
        OFFSET 0.000000 17.073600 -0.006000
       }
      }
     }
     JOINT RightCollar
     {
      OFFSET -2.921100 9.558500 0.000000
      CHANNELS 3 Yrotation Xrotation Zrotation
      JOINT RightShoulder
      {
       OFFSET -13.519700 0.000000 0.000000
       CHANNELS 3 Yrotation Xrotation Zrotation
       JOINT RightElbow
       {
        OFFSET 0.000000 -29.696600 0.000000
        CHANNELS 3 Yrotation Xrotation Zrotation
        JOINT RightWrist
        {
         OFFSET 0.000000 -24.004700 0.000000
         CHANNELS 3 Yrotation Xrotation Zrotation
         End Site
         {
          OFFSET 0.000000 -17.728500 0.000000
         }
        }
       }
      }
     }
     JOINT LeftCollar
     {
      OFFSET 2.921100 9.558500 0.000000
      CHANNELS 3 Yrotation Xrotation Zrotation
      JOINT LeftShoulder
      {
       OFFSET 13.519700 0.000000 0.000000
       CHANNELS 3 Yrotation Xrotation Zrotation
       JOINT LeftElbow
       {
        OFFSET 0.000000 -29.696600 0.000000
        CHANNELS 3 Yrotation Xrotation Zrotation
        JOINT LeftWrist
        {
         OFFSET 0.000000 -24.004700 0.000000
         CHANNELS 3 Yrotation Xrotation Zrotation
         End Site
         {
          OFFSET 0.000000 -17.728500 0.000000
         }
        }
       }
      }
     }
    }
   }
  }
 }
 JOINT RightHip
 {
  OFFSET -7.771700 -0.012900 -0.001300
  CHANNELS 3 Yrotation Xrotation Zrotation
  JOINT RightKnee
  {
   OFFSET 0.000000 -40.869800 0.001200
   CHANNELS 3 Yrotation Xrotation Zrotation
   JOINT RightAnkle
   {
    OFFSET 0.000000 -39.717900 0.002100
    CHANNELS 3 Yrotation Xrotation Zrotation
    JOINT RightToe
    {
     OFFSET 0.000000 -4.965400 11.033500
     CHANNELS 3 Yrotation Xrotation Zrotation
     End Site
     {
      OFFSET 0.000000 -1.423100 5.872300
     }
    }
   }
  }
 }
 JOINT LeftHip
 {
  OFFSET 7.771700 -0.012900 -0.001300
  CHANNELS 3 Yrotation Xrotation Zrotation
  JOINT LeftKnee
  {
   OFFSET 0.000000 -40.869800 0.001200
   CHANNELS 3 Yrotation Xrotation Zrotation
   JOINT LeftAnkle
   {
    OFFSET 0.000000 -39.717900 0.002100
    CHANNELS 3 Yrotation Xrotation Zrotation
    JOINT LeftToe
    {
     OFFSET 0.000000 -4.965400 11.033500
     CHANNELS 3 Yrotation Xrotation Zrotation
     End Site
     {
      OFFSET 0.000000 -1.423100 5.872300
     }
    }
   }
  }
 }
}
MOTION
Frames: 7
Frame Time: 0.008333
0.000000 85.388000 0.000000 0.000000 -5.767877 0.000000 0.000000 11.653817 0.000000 0.000000 -5.885947 0.000000 0.000000 -0.000000 0.000000 0.000000 -0.000000 0.000000 0.000000 12.528835 0.000000 0.000000 0.711642 0.000000 0.000000 -0.000000 0.000000 0.000000 0.000000 -90.000000 0.000000 -2.309062 0.000000 0.000000 2.309062 0.000000 0.000000 -0.000000 0.000000 0.000000 -0.000000 90.000000 0.000000 -2.309062 0.000000 0.000000 2.309062 0.000000 0.000000 8.520406 0.000000 0.000000 1.905762 0.000000 -0.000000 -4.658285 0.000000 0.000000 -0.000000 0.000000 0.000000 8.520406 0.000000 0.000000 1.905762 0.000000 -0.000000 -4.658285 0.000000 0.000000 -0.000000 0.000000
-248.878743 60.741744 -78.750231 158.148708 -18.382874 2.166712 4.758497 13.052051 1.123829 0.378939 1.086947 0.054612 0.650338 1.867284 0.123749 4.216907 11.742021 1.090357 5.859986 22.553188 3.588268 5.548779 -1.371413 2.557176 6.362833 5.385060 -1.456476 9.525300 -39.017401 -22.389635 -164.078474 -53.502327 -177.697979 1.205178 -9.215704 -38.684299 -9.132262 0.627439 -6.868095 12.980403 -33.423266 10.048549 155.693275 -53.342670 -179.661973 -1.007617 -5.454289 19.796122 7.214277 -51.013764 2.018037 -30.275047 69.998505 -28.580665 -2.818283 -5.502514 0.581327 0.151910 -0.115226 0.097711 8.367803 -50.067245 -0.090914 30.031728 63.631372 31.561926 -19.616355 -12.903588 -0.704136 -0.159149 0.100745 -0.010211
-248.885083 60.735697 -78.748942 158.154525 -18.390034 2.142189 4.758383 13.065198 1.156956 0.381922 1.093043 0.060275 0.647498 1.858635 0.114385 4.216747 11.744159 1.094191 5.610505 22.606610 3.543310 5.280100 -1.329063 2.551957 6.357274 5.392655 -1.460203 9.566503 -38.847613 -22.320131 -164.551524 -53.532104 -177.380695 1.284596 -9.366606 -38.838521 -9.131124 0.689672 -6.852029 12.775117 -33.318350 10.034695 155.629313 -53.484068 -179.684667 -0.950453 -5.556976 19.722181 7.134841 -51.012794 2.120534 -30.298378 69.985310 -28.656142 -2.844663 -5.502531 0.582710 0.176539 -0.111452 0.110159 8.340558 -50.075316 -0.061365 30.058873 63.638403 31.583158 -19.630839 -12.896851 -0.709859 -0.146513 0.105879 -0.006494
-248.899798 60.727988 -78.748427 158.156384 -18.390162 2.153241 4.751895 13.073944 1.153425 0.383338 1.089816 0.056640 0.647621 1.859215 0.114982 4.217117 11.745665 1.098023 5.342010 22.657954 3.497545 4.993220 -1.289098 2.549705 6.338908 5.440343 -1.440124 9.648262 -38.701188 -22.287812 -165.081800 -53.595954 -177.032683 1.371960 -9.549265 -38.951440 -9.131801 0.703909 -6.851325 12.557047 -33.166798 10.046272 155.551569 -53.661029 -179.715113 -0.896086 -5.671750 19.611450 7.114071 -51.016315 2.153577 -30.315217 69.975413 -28.716607 -2.926554 -5.484273 0.570263 0.250401 -0.127960 0.134252 8.353300 -50.096460 -0.078749 30.130247 63.647638 31.620271 -19.661117 -12.892405 -0.680707 -0.207243 0.118387 -0.027602
-248.921817 60.716940 -78.742710 158.194597 -18.351725 2.168969 4.708315 13.040393 1.125523 0.384699 1.094055 0.062001 0.641994 1.869295 0.126158 4.220483 11.739340 1.096146 5.046144 22.703454 3.439570 4.686951 -1.253503 2.552131 6.313165 5.480854 -1.428232 9.743959 -38.539817 -22.253600 -165.695819 -53.699071 -176.639185 1.472225 -9.758447 -39.020812 -9.137309 0.781993 -6.845799 12.346834 -33.074440 10.022274 155.479906 -53.877137 -179.764585 -0.846895 -5.796868 19.463423 7.087119 -51.058263 2.145077 -30.311742 69.968542 -28.753057 -2.972616 -5.497416 0.571199 0.285014 -0.108103 0.145012 8.368691 -50.189248 -0.144763 30.297106 63.676845 31.721221 -19.716868 -12.798227 -0.596057 -0.330340 0.045034 -0.075653
-248.937382 60.706442 -78.739562 158.209184 -18.348687 2.151181 4.694436 13.039537 1.142131 0.379093 1.102315 0.070070 0.643854 1.865299 0.122313 4.216493 11.752579 1.117741 4.732007 22.735443 3.367535 4.358679 -1.221923 2.561370 6.275676 5.562833 -1.402893 9.893605 -38.415924 -22.262045 -166.396412 -53.844126 -176.192084 1.589629 -9.983043 -39.050254 -9.143585 0.827239 -6.860538 12.131332 -32.959612 10.015257 155.434323 -54.137116 -179.837673 -0.801461 -5.938267 19.271697 7.022966 -51.068770 2.207684 -30.314373 69.962668 -28.790298 -3.002604 -5.504723 0.565184 0.312889 -0.097127 0.156452 8.359602 -50.227835 -0.151025 30.374904 63.694387 31.784517 -19.718348 -12.761218 -0.580541 -0.358096 0.023882 -0.086538
-248.949169 60.695343 -78.735367 158.218650 -18.353054 2.103612 4.678997 13.049619 1.196806 0.392635 1.096782 0.060824 0.636839 1.867038 0.127525 4.214476 11.759107 1.128841 4.398140 22.769194 3.308655 4.006369 -1.194367 2.576665 6.267267 5.590651 -1.402989 9.978692 -38.232192 -22.200620 -167.186985 -54.034881 -175.680012 1.717070 -10.220678 -39.052136 -9.150750 0.864409 -6.870788 11.898806 -32.822636 10.018125 155.434737 -54.441218 -179.937759 -0.756849 -6.100024 19.030688 6.922683 -51.075041 2.322132 -30.315458 69.955573 -28.826616 -3.020671 -5.506587 0.562014 0.330014 -0.091172 0.163942 8.336422 -50.264387 -0.127493 30.424716 63.715818 31.851968 -19.645550 -12.732702 -0.600289 -0.395945 0.004195 -0.074841
